<svg width="136" height="45" viewBox="0 0 136 45" fill="none" xmlns="http://www.w3.org/2000/svg">
<path d="M15.93 20.66C15.3 17.72 12.84 16.97 10.17 16.97C5.88 16.97 4.17 20.6 4.17 24.62C4.17 28.37 5.58 32 9.96 32C12.27 32 15.45 31.19 17.1 29.48L17.49 29.87C15.75 31.7 12.51 32.54 9.99 32.54C4.62 32.54 1.23 29.24 1.23 24.56C1.23 19.76 4.86 16.43 10.17 16.43C13.77 16.43 15.93 17.78 16.53 20.57L15.93 20.66ZM27.1877 32H24.4277V9.5H27.1877V32ZM72.735 17H73.395L67.785 32H64.755L58.725 17H61.695L67.425 31.28L72.735 17ZM94.1627 25.73H81.4727C81.7427 29.06 83.3927 32 87.3227 32C89.6627 32 92.7227 31.19 94.3727 29.51L94.7627 29.9C93.0227 31.7 89.7827 32.57 87.2627 32.57C81.8927 32.57 78.5027 29.24 78.5027 24.59C78.5027 19.76 82.1327 16.43 87.4427 16.43C92.5427 16.43 94.1627 18.95 94.1627 23.54V25.73ZM81.4427 25.16H93.5627C93.5627 20.36 93.2927 17 87.4427 17C82.8227 17 81.2927 21.2 81.4427 25.16ZM111.654 16.43C113.634 16.43 115.074 17.6 115.074 19.64C115.074 21.71 113.604 23 111.204 23V22.43C113.274 22.43 114.474 21.38 114.474 19.64C114.474 17.69 112.944 17 111.624 17C105.474 17 104.784 27.59 104.784 32H102.024V17H104.784V25.07C105.474 21.38 107.154 16.43 111.654 16.43Z" fill="black"/>
<path d="M50.4328 24C50.4328 27.866 47.4103 31 43.4839 31C39.5576 31 36.535 27.866 36.535 24C36.535 20.134 39.5576 17 43.4839 17C47.4103 17 50.4328 20.134 50.4328 24Z" fill="black"/>
<path d="M42.8085 12.4851C42.7436 11.9619 43.1517 11.5 43.679 11.5C44.2062 11.5 44.6144 11.9619 44.5494 12.4852L44.2363 15.0075C44.2014 15.2888 43.9624 15.5 43.6789 15.5C43.3955 15.5 43.1564 15.2888 43.1215 15.0075L42.8085 12.4851Z" fill="black"/>
<path d="M42.8094 12.4923C42.744 11.9654 43.1519 11.5 43.679 11.5C44.2061 11.5 44.6139 11.9654 44.5486 12.4923L44.1752 15C44.14 15.2834 43.9625 15.5 43.679 15.5C43.3954 15.5 43.2177 15.2834 43.1825 15L42.8094 12.4923Z" fill="black"/>
<path d="M44.5491 35.5149C44.6141 36.0381 44.206 36.5 43.6787 36.5C43.1514 36.5 42.7433 36.0381 42.8082 35.5149L43.1212 32.9926C43.1561 32.7112 43.3952 32.5 43.6787 32.5C43.9622 32.5 44.2012 32.7112 44.2362 32.9926L44.5491 35.5149Z" fill="black"/>
<path d="M44.5483 35.5077C44.6136 36.0346 44.2058 36.5 43.6787 36.5C43.1516 36.5 42.7437 36.0346 42.8091 35.5077L43.1208 32.9961C43.1559 32.7127 43.3951 32.5 43.6787 32.5C43.9622 32.5 44.2014 32.7127 44.2366 32.9961L44.5483 35.5077Z" fill="black"/>
<path d="M55.5918 23.1249C56.1184 23.0586 56.5839 23.4692 56.5839 24C56.5839 24.5308 56.1184 24.9414 55.5918 24.8751L53.1092 24.5625C52.8257 24.5268 52.6131 24.2857 52.6131 24C52.6131 23.7143 52.8257 23.4732 53.1092 23.4375L55.5918 23.1249Z" fill="black"/>
<path d="M55.5989 23.124C56.1219 23.0582 56.5839 23.469 56.5839 24C56.5839 24.531 56.1219 24.9418 55.5989 24.876L53.1056 24.562C52.8243 24.5266 52.6131 24.2856 52.6131 24C52.6131 23.7144 52.8243 23.4734 53.1056 23.438L55.5989 23.124Z" fill="black"/>
<path d="M31.7659 24.8751C31.2392 24.9414 30.7737 24.5308 30.7737 24C30.7737 23.4692 31.2392 23.0586 31.7659 23.1249L34.2485 23.4375C34.5319 23.4732 34.7445 23.7143 34.7445 24C34.7445 24.2857 34.5319 24.5268 34.2485 24.5625L31.7659 24.8751Z" fill="black"/>
<path d="M31.7588 24.876C31.2357 24.9418 30.7737 24.531 30.7737 24C30.7737 23.469 31.2357 23.0582 31.7588 23.124L34.252 23.438C34.5334 23.4734 34.7445 23.7144 34.7445 24C34.7445 24.2856 34.5334 24.5266 34.252 24.562L31.7588 24.876Z" fill="black"/>
<path d="M52.9434 31.6055C53.3688 31.9194 53.4249 32.5377 53.0631 32.9238C52.7012 33.31 52.0852 33.2891 51.7496 32.8793L50.1509 30.9275C49.9703 30.707 49.9809 30.3858 50.1756 30.178C50.3702 29.9703 50.688 29.9412 50.9169 30.11L52.9434 31.6055Z" fill="black"/>
<path d="M52.9437 31.6057C53.3689 31.9195 53.4249 32.5377 53.0631 32.9238C52.7012 33.31 52.0853 33.2892 51.7499 32.8797L50.1508 30.9273C49.9703 30.707 49.9809 30.3858 50.1756 30.178C50.3702 29.9703 50.688 29.9411 50.9167 30.1099L52.9437 31.6057Z" fill="black"/>
<path d="M34.4143 16.3945C33.9889 16.0806 33.9328 15.4623 34.2946 15.0762C34.6564 14.69 35.2725 14.7109 35.6081 15.1207L37.2068 17.0725C37.3873 17.293 37.3767 17.6142 37.1821 17.822C36.9874 18.0297 36.6696 18.0588 36.4408 17.89L34.4143 16.3945Z" fill="black"/>
<path d="M34.414 16.3943C33.9887 16.0805 33.9328 15.4623 34.2946 15.0762C34.6564 14.69 35.2723 14.7108 35.6078 15.1203L37.2069 17.0727C37.3874 17.293 37.3767 17.6142 37.1821 17.822C36.9874 18.0297 36.6697 18.0589 36.441 17.8901L34.414 16.3943Z" fill="black"/>
<path d="M35.4374 32.7185C35.0938 33.1217 34.4774 33.1305 34.1231 32.7373C33.7688 32.3442 33.8371 31.727 34.2686 31.4214L36.3234 29.9664C36.5555 29.802 36.8727 29.8374 37.0633 30.0489C37.2539 30.2604 37.2582 30.5819 37.0734 30.7988L35.4374 32.7185Z" fill="black"/>
<path d="M35.4369 32.719C35.0936 33.1219 34.4774 33.1305 34.1231 32.7373C33.7688 32.3441 33.8368 31.7272 34.268 31.4218L36.3236 29.9662C36.5556 29.802 36.8727 29.8374 37.0633 30.0489C37.2539 30.2604 37.2583 30.5818 37.0736 30.7985L35.4369 32.719Z" fill="black"/>
<path d="M51.6384 14.7894C51.962 14.3702 52.5771 14.3316 52.9498 14.7071C53.3225 15.0826 53.2842 15.7022 52.8682 16.0282L50.8848 17.5821C50.661 17.7575 50.3425 17.7375 50.142 17.5355C49.9415 17.3336 49.9217 17.0128 50.0958 16.7873L51.6384 14.7894Z" fill="black"/>
<path d="M51.6384 14.7894C51.962 14.3702 52.5771 14.3316 52.9498 14.7071C53.3225 15.0826 53.2842 15.7022 52.8682 16.0282L50.8848 17.5821C50.661 17.7575 50.3425 17.7375 50.142 17.5355C49.9415 17.3336 49.9217 17.0128 50.0958 16.7873L51.6384 14.7894Z" fill="black"/>
</svg>
